<svg width="300" height="400" xmlns="http://www.w3.org/2000/svg">

    <!-- Background -->
    <rect width="100%" height="100%" fill="#0D1117"/>

    <!-- Attributes -->
    <text x="20" y="40" font-family="Arial" font-size="15" fill="#FFF">ADAPTABILITY</text>
    <text x="20" y="80" font-family="Arial" font-size="15" fill="#FFF">LUCK</text>
    <text x="20" y="160" font-family="Arial" font-size="15" fill="#FFF">CHARISMA</text>
    <text x="20" y="120" font-family="Arial" font-size="15" fill="#FFF">DESK DEFENDER</text>
    <text x="20" y="200" font-family="Arial" font-size="15" fill="#FFF">TECH NERD</text>

    <!-- Bars for each attribute (Example: 4/10 for STRENGTH) -->
    <rect x="160" y="20" width="20" height="20" rx="5" ry="5" fill="#32CD32" stroke="white" stroke-width="2"/> <!-- ADAPTABILITY -->
    <rect x="185" y="20" width="20" height="20" rx="5" ry="5" fill="#32CD32" stroke="white" stroke-width="2"/>
    <rect x="210" y="20" width="20" height="20" rx="5" ry="5" fill="#32CD32" stroke="white" stroke-width="2"/>
    <rect x="235" y="20" width="20" height="20" rx="5" ry="5" fill="#32CD32" stroke="white" stroke-width="2"/>
    <rect x="260" y="20" width="20" height="20" rx="5" ry="5" fill="#32CD32" stroke="white" stroke-width="2"/>
    
    <rect x="160" y="60" width="20" height="20" rx="5" ry="5" fill="#32CD32" stroke="white" stroke-width="2"/> <!-- LUCK -->
    <rect x="185" y="60" width="20" height="20" rx="5" ry="5" fill="#32CD32" stroke="white" stroke-width="2"/>
    <rect x="210" y="60" width="20" height="20" rx="5" ry="5" fill="#32CD32" stroke="white" stroke-width="2"/>
    <rect x="235" y="60" width="20" height="20" rx="5" ry="5" fill="#32CD32" stroke="white" stroke-width="2"/>
    <rect x="260" y="60" width="20" height="20" rx="5" ry="5" fill="white" stroke="white" stroke-width="2"/>
    
    <rect x="160" y="100" width="20" height="20" rx="5" ry="5" fill="#32CD32" stroke="white" stroke-width="2"/> <!-- CHARISMA -->
    <rect x="185" y="100" width="20" height="20" rx="5" ry="5" fill="#32CD32" stroke="white" stroke-width="2"/>
    <rect x="210" y="100" width="20" height="20" rx="5" ry="5" fill="#32CD32" stroke="white" stroke-width="2"/>
    <rect x="235" y="100" width="20" height="20" rx="5" ry="5" fill="#32CD32" stroke="white" stroke-width="2"/>
    <rect x="260" y="100" width="20" height="20" rx="5" ry="5" fill="#32CD32" stroke="white" stroke-width="2"/>
    
    <rect x="160" y="140" width="20" height="20" rx="5" ry="5" fill="#32CD32" stroke="white" stroke-width="2"/> <!-- DESK DEFENDER -->
    <rect x="185" y="140" width="20" height="20" rx="5" ry="5" fill="#32CD32" stroke="white" stroke-width="2"/>
    <rect x="210" y="140" width="20" height="20" rx="5" ry="5" fill="#32CD32" stroke="white" stroke-width="2"/>
    <rect x="235" y="140" width="20" height="20" rx="5" ry="5" fill="#32CD32" stroke="white" stroke-width="2"/>
    <rect x="260" y="140" width="20" height="20" rx="5" ry="5" fill="#32CD32" stroke="white" stroke-width="2"/>
    
    <rect x="160" y="180" width="20" height="20" rx="5" ry="5" fill="#32CD32" stroke="white" stroke-width="2"/> <!-- TECH NERD -->
    <rect x="185" y="180" width="20" height="20" rx="5" ry="5" fill="#32CD32" stroke="white" stroke-width="2"/>
    <rect x="210" y="180" width="20" height="20" rx="5" ry="5" fill="#32CD32" stroke="white" stroke-width="2"/>
    <rect x="235" y="180" width="20" height="20" rx="5" ry="5" fill="#32CD32" stroke="white" stroke-width="2"/>
    <rect x="260" y="180" width="20" height="20" rx="5" ry="5" fill="#32CD32" stroke="white" stroke-width="2"/>
</svg>

