<svg
  width="100%"
  height="auto"
  xmlns="http://www.w3.org/2000/svg"
  viewBox="0 0 300 250"
>
  <!-- Gradient Background -->
  <defs>
    <linearGradient id="bgGradient" x1="0%" y1="0%" x2="0%" y2="100%">
      <stop offset="30%" style="stop-color:#1E1A31;stop-opacity:1" />
      <stop offset="50%" style="stop-color:#800080;stop-opacity:0.7" /> <!-- Adjust opacity here -->
    </linearGradient>
  </defs>
  <rect width="100%" height="100%" fill="url(#bgGradient)" />
    
  <!-- Attributes -->
  <text
    x="20"
    y="40"
    font-family="Arial"
    font-size="15"
    fill="white"
    font-weight="bold"
    text-shadow="2px 2px 4px rgba(0,0,0,0.5)"
  >
    ADAPTABILITY
  </text>
  <text
    x="20"
    y="80"
    font-family="Arial"
    font-size="15"
    fill="white"
    font-weight="bold"
    text-shadow="2px 2px 4px rgba(0,0,0,0.5)"
  >
    LUCK
  </text>
  <text
    x="20"
    y="160"
    font-family="Arial"
    font-size="15"
    fill="white"
    font-weight="bold"
    text-shadow="2px 2px 4px rgba(0,0,0,0.5)"
  >
    CHARISMA
  </text>
  <text
    x="20"
    y="120"
    font-family="Arial"
    font-size="15"
    fill="white"
    font-weight="bold"
    text-shadow="2px 2px 4px rgba(0,0,0,0.5)"
  >
    DESK DEFENDER
  </text>
  <text
    x="20"
    y="200"
    font-family="Arial"
    font-size="15"
    fill="white"
    font-weight="bold"
    text-shadow="2px 2px 4px rgba(0,0,0,0.5)"
  >
    TECH NERD
  </text>

  <!-- Bars for each attribute (Example: 4/10 for STRENGTH) -->
  <rect
    x="160"
    y="20"
    width="20"
    height="20"
    rx="5"
    ry="5"
    fill="#32CD32"
    stroke="white"
    stroke-width="2"
    filter="url(#drop-shadow)"
  />
  <!-- ADAPTABILITY -->
  <rect
    x="185"
    y="20"
    width="20"
    height="20"
    rx="5"
    ry="5"
    fill="#32CD32"
    stroke="white"
    stroke-width="2"
    filter="url(#drop-shadow)"
  />
  <rect
    x="210"
    y="20"
    width="20"
    height="20"
    rx="5"
    ry="5"
    fill="#32CD32"
    stroke="white"
    stroke-width="2"
    filter="url(#drop-shadow)"
  />
  <rect
    x="235"
    y="20"
    width="20"
    height="20"
    rx="5"
    ry="5"
    fill="#32CD32"
    stroke="white"
    stroke-width="2"
    filter="url(#drop-shadow)"
  />
  <rect
    x="260"
    y="20"
    width="20"
    height="20"
    rx="5"
    ry="5"
    fill="#32CD32"
    stroke="white"
    stroke-width="2"
    filter="url(#drop-shadow)"
  />

  <rect
    x="160"
    y="60"
    width="20"
    height="20"
    rx="5"
    ry="5"
    fill="#32CD32"
    stroke="white"
    stroke-width="2"
    filter="url(#drop-shadow)"
  />
  <!-- LUCK -->
  <rect
    x="185"
    y="60"
    width="20"
    height="20"
    rx="5"
    ry="5"
    fill="#32CD32"
    stroke="white"
    stroke-width="2"
    filter="url(#drop-shadow)"
  />
  <rect
    x="210"
    y="60"
    width="20"
    height="20"
    rx="5"
    ry="5"
    fill="#32CD32"
    stroke="white"
    stroke-width="2"
    filter="url(#drop-shadow)"
  />
  <rect
    x="235"
    y="60"
    width="20"
    height="20"
    rx="5"
    ry="5"
    fill="#32CD32"
    stroke="white"
    stroke-width="2"
    filter="url(#drop-shadow)"
  />
  <rect
    x="260"
    y="60"
    width="20"
    height="20"
    rx="5"
    ry="5"
    fill="#32CD32"
    stroke="white"
    stroke-width="2"
    filter="url(#drop-shadow)"
  />

  <rect
    x="160"
    y="100"
    width="20"
    height="20"
    rx="5"
    ry="5"
    fill="#32CD32"
    stroke="white"
    stroke-width="2"
    filter="url(#drop-shadow)"
  />
  <!-- CHARISMA -->
  <rect
    x="185"
    y="100"
    width="20"
    height="20"
    rx="5"
    ry="5"
    fill="#32CD32"
    stroke="white"
    stroke-width="2"
    filter="url(#drop-shadow)"
  />
  <rect
    x="210"
    y="100"
    width="20"
    height="20"
    rx="5"
    ry="5"
    fill="#32CD32"
    stroke="white"
    stroke-width="2"
    filter="url(#drop-shadow)"
  />
  <rect
    x="235"
    y="100"
    width="20"
    height="20"
    rx="5"
    ry="5"
    fill="#32CD32"
    stroke="white"
    stroke-width="2"
    filter="url(#drop-shadow)"
  />
  <rect
    x="260"
    y="100"
    width="20"
    height="20"
    rx="5"
    ry="5"
    fill="#32CD32"
    stroke="white"
    stroke-width="2"
    filter="url(#drop-shadow)"
  />

  <rect
    x="160"
    y="140"
    width="20"
    height="20"
    rx="5"
    ry="5"
    fill="#32CD32"
    stroke="white"
    stroke-width="2"
    filter="url(#drop-shadow)"
  />
  <!-- DESK DEFENDER -->
  <rect
    x="185"
    y="140"
    width="20"
    height="20"
    rx="5"
    ry="5"
    fill="#32CD32"
    stroke="white"
    stroke-width="2"
    filter="url(#drop-shadow)"
  />
  <rect
    x="210"
    y="140"
    width="20"
    height="20"
    rx="5"
    ry="5"
    fill="#32CD32"
    stroke="white"
    stroke-width="2"
    filter="url(#drop-shadow)"
  />
  <rect
    x="235"
    y="140"
    width="20"
    height="20"
    rx="5"
    ry="5"
    fill="#32CD32"
    stroke="white"
    stroke-width="2"
    filter="url(#drop-shadow)"
  />
  <rect
    x="260"
    y="140"
    width="20"
    height="20"
    rx="5"
    ry="5"
    fill="#32CD32"
    stroke="white"
    stroke-width="2"
    filter="url(#drop-shadow)"
  />

  <rect
    x="160"
    y="180"
    width="20"
    height="20"
    rx="5"
    ry="5"
    fill="#32CD32"
    stroke="white"
    stroke-width="2"
    filter="url(#drop-shadow)"
  />
  <!-- TECH NERD -->
  <rect
    x="185"
    y="180"
    width="20"
    height="20"
    rx="5"
    ry="5"
    fill="#32CD32"
    stroke="white"
    stroke-width="2"
    filter="url(#drop-shadow)"
  />
  <rect
    x="210"
    y="180"
    width="20"
    height="20"
    rx="5"
    ry="5"
    fill="#32CD32"
    stroke="white"
    stroke-width="2"
    filter="url(#drop-shadow)"
  />
  <rect
    x="235"
    y="180"
    width="20"
    height="20"
    rx="5"
    ry="5"
    fill="#32CD32"
    stroke="white"
    stroke-width="2"
    filter="url(#drop-shadow)"
  />
  <rect
    x="260"
    y="180"
    width="20"
    height="20"
    rx="5"
    ry="5"
    fill="#32CD32"
    stroke="white"
    stroke-width="2"
    filter="url(#drop-shadow)"
  />

  <!-- Filter for Drop Shadows -->
  <filter id="drop-shadow" height="130%">
    <feGaussianBlur in="SourceAlpha" stdDeviation="3" />
    <feOffset dx="2" dy="2" result="offsetblur" />
    <feComponentTransfer>
      <feFuncA type="linear" slope="0.2" />
    </feComponentTransfer>
    <feMerge>
      <feMergeNode />
      <feMergeNode in="SourceGraphic" />
    </feMerge>
  </filter>
</svg>
